<svg width="15" height="15" viewBox="0 0 15 15" fill="none" xmlns="http://www.w3.org/2000/svg">
<g clip-path="url(#clip0)">
<path fill-rule="evenodd" clip-rule="evenodd" d="M10.1455 0H4.88338C2.46194 0 0.498291 1.99637 0.498291 4.45818V9.808C0.498291 12.2699 2.46194 14.2662 4.88338 14.2662H10.1455C12.567 14.2662 14.5306 12.2699 14.5306 9.808V4.45818C14.5306 1.99637 12.567 0 10.1455 0ZM13.2151 9.808C13.2151 11.5289 11.8381 12.9287 10.1455 12.9287H4.88338C3.19074 12.9287 1.81382 11.5289 1.81382 9.808V4.45818C1.81382 2.73732 3.19074 1.33745 4.88338 1.33745H10.1455C11.8381 1.33745 13.2151 2.73732 13.2151 4.45818V9.808ZM7.51445 3.56655C5.57711 3.56655 4.00637 5.16347 4.00637 7.13309C4.00637 9.10272 5.57711 10.6996 7.51445 10.6996C9.45179 10.6996 11.0225 9.10272 11.0225 7.13309C11.0225 5.16347 9.45179 3.56655 7.51445 3.56655ZM7.51445 9.36218C6.30591 9.36218 5.3219 8.36177 5.3219 7.13309C5.3219 5.90353 6.30591 4.904 7.51445 4.904C8.72299 4.904 9.707 5.90353 9.707 7.13309C9.707 8.36177 8.72299 9.36218 7.51445 9.36218ZM11.7531 3.29904C11.7531 3.56152 11.5438 3.77429 11.2856 3.77429C11.0275 3.77429 10.8182 3.56152 10.8182 3.29904C10.8182 3.03658 11.0275 2.8238 11.2856 2.8238C11.5438 2.8238 11.7531 3.03658 11.7531 3.29904Z" fill="white"/>
</g>
<defs>
<clipPath id="clip0">
<rect width="14.2662" height="14.2662" fill="white" transform="translate(0.498291)"/>
</clipPath>
</defs>
</svg>
