<svg width="19" height="13" viewBox="0 0 19 13" fill="none" xmlns="http://www.w3.org/2000/svg">
<g clip-path="url(#clip0)">
<path d="M17.8275 2.23795C17.6194 1.51053 17.0089 0.937113 16.2349 0.74124C14.8208 0.377686 9.16444 0.377686 9.16444 0.377686C9.16444 0.377686 3.50824 0.377686 2.09416 0.727457C1.33501 0.923121 0.70976 1.51063 0.501526 2.23795C0.129395 3.56656 0.129395 6.32193 0.129395 6.32193C0.129395 6.32193 0.129395 9.09119 0.501526 10.4059C0.709982 11.1332 1.32013 11.7066 2.09428 11.9025C3.52313 12.2662 9.16466 12.2662 9.16466 12.2662C9.16466 12.2662 14.8208 12.2662 16.2349 11.9164C17.0091 11.7206 17.6194 11.1472 17.8278 10.4199C18.1998 9.09119 18.1998 6.33592 18.1998 6.33592C18.1998 6.33592 18.2147 3.56656 17.8275 2.23795ZM7.36357 8.86743V3.77643L12.0672 6.32193L7.36357 8.86743Z" fill="white"/>
</g>
<defs>
<clipPath id="clip0">
<rect width="18.0705" height="11.8885" fill="white" transform="translate(0.129395 0.377686)"/>
</clipPath>
</defs>
</svg>
