<svg width="18" height="18" viewBox="0 0 18 18" fill="none" xmlns="http://www.w3.org/2000/svg">
<path d="M8.96484 0C4.02152 0 0 4.02152 0 8.96484C0 13.9082 4.02152 18 8.96484 18C13.9082 18 18 13.9082 18 8.96484C18 4.02152 13.9082 0 8.96484 0ZM8.96484 15.8906C5.19476 15.8906 2.10938 12.7522 2.10938 8.96484C2.10938 5.19476 5.17753 2.10938 8.96484 2.10938C12.7349 2.10938 15.8906 5.17753 15.8906 8.96484C15.8906 12.7349 12.7522 15.8906 8.96484 15.8906Z" fill="white"/>
<path d="M14.3087 9.49208C13.6136 9.49208 13.6107 8.43739 14.3087 8.43739H14.8094C14.7002 7.23354 14.2235 6.13476 13.4902 5.25551L13.1371 5.60858C12.6466 6.09915 11.8944 5.35996 12.3914 4.86288L12.7445 4.50981C11.8653 3.77645 10.6962 3.29983 9.49232 3.19067V3.6913C9.49232 4.38644 8.43764 4.38929 8.43764 3.6913V3.19067C7.23378 3.29983 6.13501 3.77648 5.25575 4.50981L5.60882 4.86288C6.10843 5.36249 5.34621 6.09166 4.86312 5.60858L4.51005 5.25551C3.77669 6.13476 3.30008 7.23354 3.19092 8.43739H3.69154C4.38669 8.43739 4.38953 9.49208 3.69154 9.49208H3.19092C3.30008 10.6959 3.77673 11.865 4.51005 12.7443L4.86312 12.3912C5.35338 11.901 6.10312 12.6426 5.60882 13.1369L5.25575 13.49C6.13501 14.2233 7.23382 14.7 8.43764 14.8091V14.3085C8.43764 13.6133 9.49232 13.6105 9.49232 14.3085V14.8091C10.6962 14.7 11.8653 14.2233 12.7445 13.49L12.3914 13.1369C11.9012 12.6467 12.6428 11.8969 13.1371 12.3912L13.4902 12.7443C14.2235 11.865 14.7002 10.6959 14.8094 9.49208H14.3087ZM10.7718 11.447L8.66242 9.3376C8.45644 9.13162 8.45644 8.79789 8.66242 8.59191L10.7718 6.48253C10.9778 6.27655 11.3115 6.27655 11.5175 6.48253C11.7235 6.68851 11.7235 7.02225 11.5175 7.22823L9.78099 8.96474L11.5175 10.7013C12.0171 11.2009 11.2549 11.9301 10.7718 11.447Z" fill="white"/>
</svg>
