<svg xmlns="http://www.w3.org/2000/svg" width="357" height="64" fill="none" viewBox="0 0 357 64">
    <g fill="#fff" fill-rule="evenodd" clip-path="url(#a)" clip-rule="evenodd">
        <path d="M7.304 20.109c0 3.62.12 6.551.345 8.816.233 2.264.835 4.196 1.811 5.832.977 1.643 2.442 2.446 4.404 2.446 2.81-.03 4.576-1.553 5.305-4.575.729-3.006 1.09-7.187 1.09-12.527 0-5.377-.369-9.588-1.09-12.633-.73-3.037-2.495-4.56-5.305-4.56-2.81 0-4.607 1.507-5.388 4.53-.781 3.044-1.172 7.27-1.172 12.67zm-7.304 0c0-5.014.691-8.983 2.081-11.937C3.464 5.241 5.2 3.181 7.274 1.992 9.355.81 11.534.219 13.81.219c2.24 0 4.403.591 6.485 1.773 2.081 1.189 3.81 3.249 5.192 6.18 1.39 2.946 2.082 6.923 2.082 11.937 0 4.983-.692 8.937-2.082 11.86-1.382 2.916-3.118 4.962-5.192 6.128-2.082 1.166-4.238 1.742-6.485 1.742-2.277 0-4.456-.576-6.537-1.742-2.082-1.166-3.817-3.212-5.2-6.128C.69 29.04 0 25.093 0 20.11zM28.734 1.09C32.897.902 35.677.713 37.06.486V36.34h2.878v2.848H28.53V36.34h2.983V3.332c-.03-.022-.383-.045-1.06-.045-.675 0-1.247.023-1.712.045V1.091h-.008zM51.074 37.302c1.96 0 3.14-.871 3.554-2.651.406-1.773.616-4.423.616-7.93 0-3.552-.21-6.21-.616-7.99-.413-1.773-1.593-2.66-3.554-2.66-1.984 0-3.224.91-3.705 2.743-.48 1.825-.721 4.46-.721 7.9 0 3.4.24 6.013.721 7.846.481 1.84 1.72 2.742 3.705 2.742zM52.035.924c4.374-.182 7.147-.326 8.311-.44v36.068h2.99v2.855h-9.22c-.96.326-1.99.485-3.095.485-3.163 0-5.673-1.227-7.522-3.658-1.848-2.431-2.772-5.613-2.772-9.506 0-3.87.924-7.036 2.772-9.513 1.849-2.476 4.358-3.71 7.522-3.71 1.247 0 2.502.287 3.787.863V3.332c.068.038-.248.084-.962.114-.706.038-1.315.045-1.81.045V.924zM107.498 1.401v11.944h-4.05c-.676-6.892-2.863-10.24-6.552-10.058-1.894.038-3.284.879-4.193 2.522-.91 1.651-1.45 3.59-1.623 5.817-.18 2.22-.233 4.938-.158 8.165.075 4.696.564 8.604 1.465 11.74.902 3.143 2.713 4.703 5.41 4.703 1.849-.06 3.389-1.038 4.614-2.901 1.225-1.856 1.894-4.257 1.999-7.195h4.644c-.105 5.34-1.375 8.937-3.787 10.785-2.413 1.848-4.99 2.817-7.733 2.916-1.886.076-3.877-.34-5.973-1.235-2.097-.9-3.983-2.847-5.659-5.862-1.668-3.007-2.577-7.331-2.72-12.944-.105-5.021.519-8.998 1.871-11.914 1.353-2.923 3.104-4.968 5.26-6.157 2.15-1.174 4.373-1.682 6.688-1.5 2.382.174 4.531 1.06 6.447 2.628l.962-1.446h3.088V1.4z"/>
        <path d="M110.909 31.667V17.049c-.323 0-.736-.023-1.232-.06-.496-.03-.909-.016-1.225.06v-2.37c1.03-.039 2.367-.205 3.998-.478.458-.083.856-.129 1.172-.166.323-.038.661-.069 1.014-.106.181-.038.354-.084.534-.144a1.95 1.95 0 0 1 .563-.076c.196 0 .436.068.722.22l-.053 18.329c0 1.189.098 2.067.301 2.68.195.622.841 1.038 1.946 1.288 1.029.25 2.307-.06 3.84-.954V30.22c0-2.052.007-4.756.022-8.127.023-3.363.045-5.044.083-5.044-.323 0-.729-.023-1.232-.06-.496-.03-.91-.016-1.225.06v-2.537c1.811-.068 3.141-.167 3.997-.31.459-.084.849-.13 1.173-.167.323-.038.661-.069 1.014-.106a.963.963 0 0 0 .421-.106c.142-.076.323-.137.533-.19.218-.045.444-.015.699.084.038.03.053 1.976.053 5.801v17.155h2.291v2.416h-7.732l-.105-1.552c-1.954 1.219-3.93 1.802-5.914 1.764-2.419-.03-3.967-.833-4.643-2.37-.677-1.53-1.015-3.295-1.015-5.264zM136.819 27.744c-1.848-1.364-3.254-2.636-4.208-3.84-.962-1.212-1.443-2.606-1.443-4.174.076-1.28.444-2.4 1.12-3.355.676-.947 1.593-1.689 2.743-2.227 1.157-.53 2.307-.78 3.441-.757 1.924.083 3.539.833 4.854 2.257v-1.606h3.412v8.165h-3.412c0-1.174-.285-2.393-.856-3.65-.571-1.258-1.511-1.97-2.826-2.16-2.457-.363-3.682.44-3.682 2.371 0 1.008.391 1.879 1.173 2.606.781.735 1.923 1.628 3.419 2.658 2.63 1.795 4.538 3.234 5.726 4.333 1.194 1.09 1.803 2.4 1.84 3.953.113 2.288-.691 4.098-2.397 5.393-1.705 1.318-3.839 1.939-6.394 1.855-2.735-.037-4.862-.757-6.372-2.143-1.511-1.409-2.232-2.977-2.157-4.726.038-1.114.346-1.97.932-2.568a2.97 2.97 0 0 1 2.164-.886c.849 0 1.563.288 2.134.864.571.575.857 1.31.857 2.211a3.553 3.553 0 0 1-.481 1.507c-.248.319-.391.553-.428.697a.866.866 0 0 0-.106.917c.106.386.451.75 1.037 1.068.586.318 1.285.484 2.104.484 1.06 0 1.999-.386 2.796-1.15.796-.766 1.164-1.546 1.089-2.341-.037-.72-.361-1.401-.984-2.068-.616-.666-1.571-1.401-2.848-2.196-1.278-.826-2.029-1.318-2.247-1.492zM152.561 3.817c-.286 0-.661-.007-1.142-.053-.481-.037-.864-.015-1.142.053V1.303c1.81-.083 3.14-.19 3.997-.333a17.92 17.92 0 0 1 1.172-.16c.316-.045.662-.075 1.015-.098a.84.84 0 0 0 .428-.121c.143-.068.316-.121.534-.19.21-.052.443-.022.691.084v13.232h6.026v2.628h-6.026v17.253c0 .977.909 1.621 2.72 1.947.601.106 1.27.015 1.999-.25.729-.265 1.27-.492 1.623-.667l1.548 2.416c-.459.5-1.323 1.091-2.585 1.742-1.263.66-2.893.864-4.884.568-4.051-.605-6.079-2.56-6.079-5.862.037-2.832.06-6.392.082-10.694.015-4.302.008-6.453-.03-6.453h-3.359v-2.628h3.359c.075 0 .113-1.235.113-3.704a341.712 341.712 0 0 0-.06-6.196z"/>
        <path d="M171.189 26.509c0 3.469.218 6.09.668 7.87.451 1.779 1.608 2.665 3.495 2.718 1.991.038 3.223-.825 3.704-2.605.481-1.78.721-4.431.721-7.976 0-3.552-.24-6.218-.721-8.013-.481-1.787-1.713-2.658-3.704-2.636-1.887 0-3.044.894-3.495 2.697-.45 1.772-.668 4.43-.668 7.945zm-5.974 0c0-5.567 1.232-9.157 3.704-10.786 2.465-1.62 4.629-2.438 6.478-2.438 2.066 0 3.884.583 5.462 1.719 1.586 1.151 2.788 2.719 3.6 4.703.819 1.992 1.225 4.257 1.225 6.81 0 3.9-.917 7.066-2.751 9.505-1.826 2.439-4.343 3.65-7.544 3.65-3.088 0-5.56-1.219-7.409-3.65-1.841-2.447-2.765-5.613-2.765-9.513z"/>
        <path d="M185.3 14.466c2.487-.114 5.335-.31 8.536-.606l-.06 1.735c1.923-1.19 3.892-1.78 5.921-1.78 1.818 0 3.216.59 4.215 1.78 2.029-1.546 4.411-2.136 7.147-1.78 2.419.287 3.967 1.159 4.643 2.613.677 1.446 1.015 3.128 1.015 5.014v15.375h2.186v2.363h-9.971v-2.363h2.292V20.858c0-1.219-.098-2.128-.293-2.741-.196-.606-.849-1.023-1.946-1.235-.459-.144-1.075-.076-1.841.197-.767.25-1.36.492-1.789.659v19.086h2.187v2.364h-9.971v-2.364h2.291V20.86c0-1.22-.097-2.129-.3-2.742-.196-.606-.842-1.023-1.939-1.235-1.037-.257-2.307.076-3.847.962v18.98h2.299v2.364h-10.129v-2.364h2.292V16.458c-.143.068-.549.121-1.225.152-.676.037-1.24.083-1.706.105v-2.249h-.007zM225.328 27.744c-1.848-1.364-3.253-2.636-4.208-3.84-.961-1.212-1.442-2.606-1.442-4.174.067-1.28.443-2.4 1.119-3.355.677-.947 1.593-1.689 2.743-2.227 1.157-.53 2.299-.78 3.441-.757 1.917.083 3.532.833 4.855 2.257v-1.606h3.411v8.165h-3.411c0-1.174-.286-2.393-.849-3.65-.572-1.258-1.518-1.97-2.833-2.16-2.457-.363-3.682.44-3.682 2.371 0 1.008.39 1.879 1.172 2.606.789.735 1.924 1.628 3.419 2.658 2.63 1.795 4.538 3.234 5.733 4.333 1.187 1.09 1.804 2.4 1.841 3.953.105 2.288-.699 4.098-2.404 5.393-1.706 1.318-3.84 1.939-6.402 1.855-2.743-.037-4.862-.757-6.38-2.143-1.51-1.409-2.224-2.977-2.157-4.726.038-1.114.346-1.97.932-2.568a2.955 2.955 0 0 1 2.157-.886c.856 0 1.563.288 2.134.864.563.575.856 1.31.856 2.211-.037.508-.202 1.008-.48 1.507-.256.319-.391.553-.429.697-.21.288-.248.591-.105.917.105.386.451.75 1.037 1.068.594.318 1.285.484 2.111.484 1.067 0 1.999-.386 2.796-1.15.804-.766 1.164-1.546 1.097-2.341-.038-.72-.368-1.401-.985-2.068-.623-.666-1.578-1.401-2.855-2.196-1.27-.826-2.021-1.318-2.232-1.492zM258.925 36.825V2.848c.075.045-.248.083-.954.106-.714.045-1.315.06-1.819.06V.44c4.374-.19 7.146-.333 8.319-.439.067.038.097 2 .082 5.9-.022 3.878-.045 7.12-.082 9.702 1.953-1.227 3.929-1.817 5.921-1.78 3.764.069 5.65 2.621 5.65 7.628v15.375h2.187v2.363h-9.971v-2.363h2.292V20.859c0-1.22-.098-2.136-.294-2.742-.195-.606-.841-1.023-1.946-1.235-1.029-.25-2.314.076-3.839.962v18.98h2.291v2.364h-10.129v-2.363h2.292zM284.15 26.509c0 3.469.225 6.09.668 7.87.444 1.779 1.608 2.665 3.494 2.718 1.992.038 3.224-.825 3.705-2.605.481-1.78.721-4.431.721-7.976 0-3.552-.24-6.218-.721-8.013-.481-1.787-1.721-2.658-3.705-2.636-1.886 0-3.05.894-3.494 2.697-.443 1.772-.668 4.43-.668 7.945zm-5.974 0c0-5.567 1.24-9.157 3.704-10.786 2.472-1.62 4.629-2.438 6.485-2.438 2.059 0 3.885.583 5.47 1.719 1.578 1.151 2.781 2.719 3.6 4.703.819 1.992 1.225 4.257 1.225 6.81 0 3.9-.917 7.066-2.743 9.505-1.826 2.439-4.343 3.65-7.544 3.65-3.096 0-5.561-1.219-7.417-3.65-1.856-2.447-2.78-5.613-2.78-9.513zM300.787 31.667V17.049c-.324 0-.729-.023-1.225-.06-.496-.03-.909-.016-1.225.06v-2.37c1.022-.039 2.359-.205 3.997-.478.459-.083.857-.129 1.173-.166.315-.038.653-.069 1.014-.106.18-.038.353-.084.534-.144.18-.053.368-.076.563-.076.196 0 .436.068.722.22l-.053 18.329c0 1.189.098 2.067.293 2.68.195.622.842 1.038 1.946 1.288 1.03.25 2.315-.06 3.84-.954V30.22c0-2.052.007-4.756.023-8.127.022-3.363.045-5.044.082-5.044-.323 0-.729-.023-1.232-.06-.496-.03-.902-.016-1.225.06v-2.537c1.811-.068 3.148-.167 3.998-.31.458-.084.856-.13 1.172-.167.315-.038.654-.069 1.014-.106a.996.996 0 0 0 .429-.106c.142-.076.323-.137.533-.19.21-.045.443-.015.691.084.038.03.06 1.976.06 5.801v17.155h2.292v2.416h-7.732l-.105-1.552c-1.961 1.219-3.93 1.802-5.921 1.764-2.42-.03-3.968-.833-4.644-2.37-.684-1.53-1.014-3.295-1.014-5.264zM326.696 27.744c-1.849-1.364-3.254-2.636-4.216-3.84-.954-1.212-1.435-2.606-1.435-4.174.068-1.28.443-2.4 1.12-3.355.676-.947 1.593-1.689 2.75-2.227 1.157-.53 2.299-.78 3.441-.757 1.917.083 3.532.833 4.847 2.257v-1.606h3.412v8.165h-3.412c0-1.174-.285-2.393-.857-3.65-.563-1.258-1.51-1.97-2.825-2.16-2.457-.363-3.682.44-3.682 2.371 0 1.008.391 1.879 1.172 2.606.782.735 1.924 1.628 3.412 2.658 2.63 1.795 4.546 3.234 5.741 4.333 1.187 1.09 1.803 2.4 1.841 3.953.105 2.288-.699 4.098-2.405 5.393-1.706 1.318-3.84 1.939-6.402 1.855-2.743-.037-4.862-.757-6.372-2.143-1.51-1.409-2.232-2.977-2.157-4.726.03-1.114.346-1.97.925-2.568a2.969 2.969 0 0 1 2.164-.886c.849 0 1.563.288 2.134.864.563.575.856 1.31.856 2.211a3.525 3.525 0 0 1-.481 1.507c-.247.319-.39.553-.428.697-.21.288-.248.591-.105.917.105.386.458.75 1.037 1.068.586.318 1.285.484 2.104.484 1.067 0 1.999-.386 2.803-1.15.804-.766 1.164-1.546 1.097-2.341-.038-.72-.361-1.401-.985-2.068-.623-.666-1.57-1.401-2.855-2.196-1.277-.826-2.029-1.318-2.239-1.492zM351.665 24.896c.106-2.977-.18-5.196-.856-6.643-.677-1.446-1.488-2.174-2.457-2.174-1.563-.045-2.51.758-2.848 2.371-.338 1.613-.474 3.75-.406 6.446h6.567zm1.338 5.854H357c-.037 3.083-.879 5.347-2.532 6.786-1.653 1.417-3.667 2.136-6.056 2.136-2.765-.068-4.99-1.105-6.665-3.12-1.669-2-2.563-4.817-2.668-8.43-.143-5.165.759-8.93 2.69-11.285 1.939-2.363 4.133-3.552 6.583-3.552 1.668 0 3.216.553 4.643 1.636 1.421 1.09 2.51 2.711 3.254 4.87.744 2.143.999 4.71.744 7.687h-11.895c-.248 6.09 1.029 9.142 3.84 9.195 1.104 0 2.051-.492 2.855-1.462.804-.97 1.21-2.446 1.21-4.46zM91.636 64.136v-.507c-.519.386-1.135.575-1.841.575-.91 0-1.766-.355-2.57-1.067-.804-.712-1.24-2.151-1.308-4.34-.03-1.348.143-2.424.504-3.212.36-.787.834-1.34 1.42-1.658.579-.31 1.18-.455 1.803-.402.647.038 1.225.28 1.744.712l.255-.394h.834v3.22h-1.09c-.187-1.856-.773-2.765-1.773-2.712-.51.015-.886.235-1.127.689-.248.447-.39.962-.436 1.568a21.868 21.868 0 0 0-.045 2.196c0 2.962.617 4.446 1.856 4.446.466 0 .872-.227 1.195-.681.33-.455.519-1.068.579-1.796v-.954a1.14 1.14 0 0 0-.556 0c-.158.046-.256.099-.3.19a.787.787 0 0 0-.099.34c-.015.122-.037.28-.052.493h-.902v-1.727h3.367l.03 5.044h-1.488v-.023zM97.752 58.88c0 .985.03 1.772.098 2.386.06.606.225 1.136.488 1.575.263.44.654.66 1.187.66.759-.016 1.233-.417 1.428-1.228.195-.803.301-1.931.301-3.386 0-1.446-.106-2.582-.301-3.408-.195-.818-.676-1.234-1.428-1.234-.759 0-1.24.409-1.458 1.227-.202.81-.315 1.954-.315 3.408zm-1.969 0c0-1.356.18-2.424.556-3.219.376-.788.85-1.348 1.413-1.659a3.414 3.414 0 0 1 1.758-.477c.601 0 1.187.152 1.744.477.563.31 1.029.871 1.412 1.659.376.795.556 1.863.556 3.219 0 1.356-.188 2.416-.556 3.211-.375.78-.849 1.333-1.412 1.651a3.472 3.472 0 0 1-1.744.47 3.48 3.48 0 0 1-1.758-.47c-.564-.31-1.037-.87-1.413-1.65-.376-.796-.556-1.856-.556-3.212zM111.969 60.758l-.008-6.278h-.984v-.788h3.719v.788h-.976l.015 5.854c0 1.182-.331 2.121-.985 2.787-.661.69-1.495 1.03-2.51 1.053a3.763 3.763 0 0 1-1.435-.257 3.427 3.427 0 0 1-1.149-.81 3.484 3.484 0 0 1-.759-1.258c-.173-.477-.256-1-.256-1.575l.03-5.757h-.977v-.787h3.712v.788h-.976l.015 6.233c0 .916.105 1.598.323 2.037.21.44.706.667 1.487.667.541 0 .94-.121 1.188-.341a1.41 1.41 0 0 0 .466-.848c.037-.341.06-.849.06-1.508zM122.677 56.426a3.78 3.78 0 0 0-.128-1.053c-.083-.31-.316-.568-.676-.765-.369-.204-.895-.234-1.601-.12v3.84c1.6.219 2.405-.417 2.405-1.902zm-4.171 6.81v-8.711h-.977v-.788h3.818c.721 0 1.442.167 2.179.5.736.326 1.097 1.053 1.089 2.166-.022.97-.398 1.636-1.142 2.015a1.92 1.92 0 0 1-.346.136c-.157.06-.285.106-.398.144-.12.038-.248.068-.406.121.707.182 1.18.44 1.428.78.248.334.391.773.451 1.28l.143 1.356c.045.402.127.674.233.818.097.137.368.19.789.182v.78c-.466.19-.902.25-1.308.182-.533-.068-.902-.242-1.104-.568-.196-.303-.331-.674-.406-1.113l-.218-1.773c-.075-.522-.256-.931-.526-1.242-.271-.28-.782-.394-1.518-.333v4.075h.977v.765h-3.727v-.765h.969v-.008zM133.384 60.296l1.631-6.559h3.742v.788h-.977v8.71h.977V64h-3.742v-.765h.977v-8.809L133.677 64h-.992l-2.276-9.574v8.81h.976V64h-3.253v-.765h.969v-8.71h-.969v-.788h3.742l1.51 6.56zM148.255 57.017h-1.12c-.06-.796-.135-1.364-.24-1.735-.105-.363-.248-.583-.428-.674-.181-.076-.481-.121-.887-.121h-1.24v3.628h.894v-1.09h1.195v3.014h-1.195V58.94h-.894v4.28h1.315c.503 0 .864-.076 1.06-.228.195-.143.323-.363.375-.658.03-.16.068-.478.12-.962.016-.144.038-.303.053-.455.015-.151.03-.303.03-.462h1.195v3.552h-6.898v-.765h.962v-8.71h-.962v-.787h6.665v3.272zM156.543 64h-3.622v-.765h.984v-8.74c-.541-.099-.946.038-1.224.386-.106.144-.188.424-.256.886-.037.242-.06.417-.067.523a8.62 8.62 0 0 0-.076.81h-1.127v-3.363h7.139V57.1h-1.09a9.04 9.04 0 0 0-.09-.81c-.038-.265-.06-.447-.068-.523-.067-.462-.157-.742-.263-.886-.293-.356-.698-.485-1.224-.386v8.74h.976V64h.008zM173.428 56.426c0-.394-.046-.742-.136-1.053-.082-.31-.308-.568-.676-.765-.368-.204-.894-.234-1.601-.12v3.84c1.616.219 2.413-.417 2.413-1.902zm-4.171 6.81v-8.711h-.977v-.788H172.097c.722 0 1.443.167 2.18.5.736.326 1.097 1.053 1.089 2.166-.022.97-.398 1.636-1.142 2.015-.075.038-.195.09-.346.136-.157.06-.285.106-.405.144-.113.038-.248.068-.406.121.706.182 1.18.44 1.428.78.248.334.398.773.45 1.28l.143 1.356c.053.402.128.674.233.818.105.137.368.19.797.182v.78c-.466.19-.902.25-1.308.182-.541-.068-.902-.242-1.104-.568-.196-.303-.331-.674-.406-1.113l-.218-1.773c-.075-.522-.248-.931-.519-1.242-.278-.28-.781-.394-1.525-.333v4.075h.977v.765h-3.727v-.765h.969v-.008zM185.549 57.017h-1.128c-.06-.796-.127-1.364-.24-1.735-.098-.363-.24-.583-.428-.674-.181-.076-.474-.121-.887-.121h-1.24v3.628h.887v-1.09h1.195v3.014h-1.195V58.94h-.887v4.28h1.308c.503 0 .864-.076 1.052-.228.203-.143.323-.363.383-.658.03-.16.067-.478.113-.962.022-.144.037-.303.06-.455.022-.151.03-.303.03-.462h1.194v3.552h-6.89v-.765h.962v-8.71h-.962v-.787h6.665v3.272h.008zM193.333 61.773c0-.537-.083-.954-.241-1.25-.157-.28-.496-.613-1.014-.992a19.46 19.46 0 0 1-.947-.719 25.965 25.965 0 0 1-1.255-1.098 3.27 3.27 0 0 1-.631-.81 2.087 2.087 0 0 1-.24-1c.022-.652.278-1.227.766-1.72.489-.484 1.165-.72 2.014-.712.751 0 1.375.205 1.886.629l.173-.409h.894v3.037l-1.067.015c-.075-1.628-.601-2.438-1.563-2.43-.518 0-.887.143-1.112.416-.225.287-.338.59-.361.931 0 .28.075.523.233.735.158.204.429.44.819.704.384.28.737.53 1.045.78.871.682 1.495 1.265 1.863 1.758.376.492.556 1.03.556 1.613 0 .644-.142 1.189-.443 1.636a2.622 2.622 0 0 1-1.225 1.015c-.518.227-1.112.325-1.781.303-1.059 0-1.833-.25-2.337-.758-.503-.5-.759-1.068-.759-1.696 0-.387.113-.697.324-.932.217-.242.465-.356.758-.333.279 0 .511.098.699.288.196.197.293.447.293.757 0 .318-.097.614-.293.848a.7.7 0 0 0-.127.144c-.023.068-.046.114-.046.167.023.144.173.326.466.515.286.166.579.25.872.25.556-.023.984-.144 1.3-.371.331-.22.488-.652.481-1.31zM203.124 64h-3.614v-.765h.977v-8.74c-.534-.099-.947.038-1.225.386-.105.144-.195.424-.255.886-.038.242-.068.417-.068.523-.03.174-.053.454-.075.81h-1.12v-3.363h7.139V57.1h-1.097a13.362 13.362 0 0 0-.091-.81 15.07 15.07 0 0 1-.067-.523c-.068-.462-.151-.742-.263-.886-.286-.356-.692-.485-1.225-.386v8.74h.977V64h.007zM210.856 55.737l-1.24 4.862h2.563l-1.323-4.862zm1.563 5.688h-3.036l-.488 1.84h.962V64h-3.119v-.735h.752l2.765-9.717h1.698l2.863 9.717h.939V64h-3.802v-.735h.992l-.526-1.84zM223.871 60.758l-.015-6.278h-.977v-.788h3.72v.788h-.977l.015 5.854c0 1.182-.331 2.121-.984 2.787-.662.69-1.496 1.03-2.518 1.053a3.784 3.784 0 0 1-1.435-.257 3.495 3.495 0 0 1-1.908-2.068c-.173-.477-.263-1-.263-1.575l.03-5.757h-.985v-.787h3.72v.788h-.977l.015 6.233c0 .916.105 1.598.323 2.037.218.44.714.667 1.488.667.541 0 .939-.121 1.195-.341a1.36 1.36 0 0 0 .458-.848c.053-.341.075-.849.075-1.508zM234.579 56.426c0-.394-.045-.742-.128-1.053-.083-.31-.308-.568-.676-.765-.361-.204-.894-.234-1.601-.12v3.84c1.601.219 2.405-.417 2.405-1.902zm-4.17 6.81v-8.711h-.977v-.788H233.249c.714 0 1.443.167 2.179.5.736.326 1.105 1.053 1.09 2.166-.023.97-.399 1.636-1.143 2.015-.075.038-.195.09-.338.136-.158.06-.293.106-.406.144-.112.038-.247.068-.398.121.707.182 1.18.44 1.428.78.248.334.398.773.443 1.28l.143 1.356c.045.402.128.674.233.818.105.137.368.19.796.182v.78c-.465.19-.901.25-1.307.182-.533-.068-.902-.242-1.105-.568a2.961 2.961 0 0 1-.413-1.113l-.218-1.773c-.075-.522-.255-.931-.526-1.242-.278-.28-.781-.394-1.518-.333v4.075h.977v.765h-3.727v-.765h.97v-.008zM244.084 55.737l-1.232 4.862h2.554l-1.322-4.862zm1.57 5.688h-3.035l-.489 1.84h.97V64h-3.126v-.735h.744l2.765-9.717h1.705l2.856 9.717h.939V64h-3.802v-.735h.992l-.519-1.84zM254.401 53.73l4.501 7.203v-6.37h-.932v-.833h3.134v.795h-.977v8.71h.977v.773l-2.533.045-4.696-7.703v6.885h.984v.773h-3.126v-.773h.97v-8.71h-.97v-.795h2.668zM269.43 64h-3.622v-.765h.984v-8.74c-.541-.099-.947.038-1.225.386-.105.144-.187.424-.255.886a4.66 4.66 0 0 0-.068.523c-.037.174-.052.454-.075.81h-1.127v-3.363h7.139V57.1h-1.09c-.023-.273-.045-.553-.09-.81-.038-.265-.06-.447-.075-.523-.06-.462-.151-.742-.256-.886-.293-.356-.699-.485-1.225-.386v8.74h.985V64z"/>
    </g>
    <defs>
        <clipPath id="a">
            <path fill="#fff" d="M0 0h357v64H0z"/>
        </clipPath>
    </defs>
</svg>
