<svg width="18" height="18" viewBox="0 0 18 18" fill="none" xmlns="http://www.w3.org/2000/svg">
<path d="M9.03516 7.38281C8.16279 7.38281 7.45312 8.09248 7.45312 8.96484C7.45312 9.83721 8.16279 10.5469 9.03516 10.5469C9.90752 10.5469 10.6172 9.83721 10.6172 8.96484C10.6172 8.09248 9.90752 7.38281 9.03516 7.38281Z" fill="white"/>
<path d="M8.96484 0C4.02152 0 0 4.02152 0 8.96484C0 13.9082 4.02152 18 8.96484 18C13.9082 18 18 13.9082 18 8.96484C18 4.02152 13.9082 0 8.96484 0ZM12.7266 11.6016C12.0138 11.6016 11.3853 11.2443 11.0033 10.7017C10.5198 11.249 9.82104 11.6016 9.03516 11.6016C7.58134 11.6016 6.39844 10.4187 6.39844 8.96484C6.39844 7.51103 7.58134 6.32812 9.03516 6.32812C9.63098 6.32812 10.1751 6.53432 10.6172 6.86893V6.85547C10.6172 6.56399 10.8531 6.32812 11.1445 6.32812C11.436 6.32812 11.6719 6.56399 11.6719 6.85547C11.6719 8.02828 11.6719 8.31885 11.6719 9.49219C11.6719 10.0736 12.1451 10.5469 12.7266 10.5469C13.308 10.5469 13.7812 10.0736 13.7812 9.49219C13.7812 5.96282 11.4458 4.21875 9.03516 4.21875C6.41802 4.21875 4.28906 6.34771 4.28906 8.96484C4.28906 11.582 6.41802 13.7109 9.03516 13.7109C10.0898 13.7109 11.0874 13.3731 11.9201 12.7335C12.4764 12.3089 13.1133 13.1471 12.5628 13.5698C11.5437 14.3521 10.3242 14.7656 9.03516 14.7656C5.83661 14.7656 3.23438 12.1634 3.23438 8.96484C3.23438 5.76629 5.83661 3.16406 9.03516 3.16406C11.9495 3.16406 14.8359 5.31334 14.8359 9.49219C14.8359 10.6555 13.8899 11.6016 12.7266 11.6016Z" fill="white"/>
</svg>
