<svg width="18" height="18" viewBox="0 0 18 18" fill="none" xmlns="http://www.w3.org/2000/svg">
<path d="M12.7266 5.27344V5.80078C12.7266 6.67614 13.4332 7.38281 14.3086 7.38281H16.418C17.2934 7.38281 18 6.67614 18 5.80078V5.27344H12.7266Z" fill="white"/>
<path d="M0 5.27344V5.80078C0 6.67614 0.706605 7.38281 1.58203 7.38281H3.69141C4.56683 7.38281 5.27344 6.67614 5.27344 5.80078V5.27344H0Z" fill="white"/>
<path d="M13.254 0H4.74616C2.30983 0 0.29541 1.8457 0.0317383 4.21875H17.9684C17.7047 1.8457 15.6903 0 13.254 0Z" fill="white"/>
<path d="M10.0897 5.27344H7.91005C7.22446 5.27344 6.63384 5.71637 6.42297 6.32812H11.5768C11.3659 5.71637 10.7753 5.27344 10.0897 5.27344Z" fill="white"/>
<path d="M9.03516 10.6172C7.87504 10.6172 6.92578 11.5664 6.92578 12.7266C6.92578 13.8867 7.87504 14.8359 9.03516 14.8359C10.1953 14.8359 11.1445 13.8867 11.1445 12.7266C11.1445 11.5664 10.1953 10.6172 9.03516 10.6172ZM9.03516 13.7812C8.45508 13.7812 7.98047 13.3066 7.98047 12.7266C7.98047 12.1465 8.45508 11.6719 9.03516 11.6719C9.61523 11.6719 10.0898 12.1465 10.0898 12.7266C10.0898 13.3066 9.61523 13.7812 9.03516 13.7812Z" fill="white"/>
<path d="M16.7449 14.7727L14.0449 8.21598C14.0344 8.19485 14.0238 8.17383 14.0132 8.1527C13.7285 7.67809 13.2118 7.38281 12.6527 7.38281H5.34727C4.73105 7.38281 4.29602 7.69904 3.96563 8.19489C3.96563 8.20543 3.95508 8.20543 3.95508 8.21602L1.25508 14.7727C1.11797 15.0891 1.05469 15.4371 1.05469 15.7851V16.418C1.05469 17.2933 1.76129 18 2.63672 18H15.3633C16.2387 18 16.9453 17.2933 16.9453 16.418V15.7851C16.9453 15.4371 16.882 15.0891 16.7449 14.7727ZM9.03516 15.8906C7.29489 15.8906 5.87109 14.4668 5.87109 12.7266C5.87109 10.9863 7.29489 9.5625 9.03516 9.5625C10.7754 9.5625 12.1992 10.9863 12.1992 12.7266C12.1992 14.4668 10.7754 15.8906 9.03516 15.8906Z" fill="white"/>
</svg>
