<svg width="18" height="18" viewBox="0 0 18 18" fill="none" xmlns="http://www.w3.org/2000/svg">
<path d="M9 4.21875C7.83664 4.21875 6.89062 5.16477 6.89062 6.32812C6.89062 7.49704 7.83496 8.4375 9 8.4375C10.1859 8.4375 11.1094 7.47932 11.1094 6.32812C11.1094 5.16477 10.1634 4.21875 9 4.21875Z" fill="white"/>
<path d="M9 0C5.51046 0 2.67188 2.83859 2.67188 6.32812C2.67188 7.50691 2.99837 8.6574 3.61586 9.65545L8.63954 17.7505C8.84784 18.0869 9.33898 18.0818 9.54077 17.7433L14.4362 9.56995C15.0191 8.59303 15.3281 7.4719 15.3281 6.32812C15.3281 2.83859 12.4895 0 9 0ZM9 9.49922C7.23006 9.49922 5.82891 8.05855 5.82891 6.32812C5.82891 4.58336 7.25523 3.15703 9 3.15703C10.7448 3.15703 12.1711 4.58336 12.1711 6.32812C12.1711 8.04329 10.7888 9.49922 9 9.49922Z" fill="white"/>
</svg>
