<svg width="8" height="15" viewBox="0 0 8 15" fill="none" xmlns="http://www.w3.org/2000/svg">
<g clip-path="url(#clip0)">
<path d="M6.86448 0.00296832L5.15358 0C3.23143 0 1.98927 1.37804 1.98927 3.51093V5.1297H0.269023C0.120375 5.1297 0 5.26001 0 5.42075V7.76617C0 7.9269 0.120511 8.05705 0.269023 8.05705H1.98927V13.9753C1.98927 14.136 2.10964 14.2662 2.25829 14.2662H4.50271C4.65136 14.2662 4.77173 14.1359 4.77173 13.9753V8.05705H6.78308C6.93174 8.05705 7.05211 7.9269 7.05211 7.76617L7.05294 5.42075C7.05294 5.34357 7.02453 5.26966 6.97414 5.21504C6.92377 5.16042 6.85515 5.1297 6.78377 5.1297H4.77173V3.75745C4.77173 3.09789 4.91708 2.76306 5.71166 2.76306L6.86421 2.76261C7.01272 2.76261 7.13309 2.6323 7.13309 2.47172V0.293863C7.13309 0.133426 7.01285 0.00326515 6.86448 0.00296832Z" fill="#212121"/>
</g>
<defs>
<clipPath id="clip0">
<rect width="7.13309" height="14.2662" fill="white"/>
</clipPath>
</defs>
</svg>
