<svg width="15" height="15" viewBox="0 0 15 15" fill="none" xmlns="http://www.w3.org/2000/svg">
<g clip-path="url(#clip0)">
<path fill-rule="evenodd" clip-rule="evenodd" d="M10.1453 0H4.88314C2.46169 0 0.498047 1.99637 0.498047 4.45818V9.808C0.498047 12.2699 2.46169 14.2662 4.88314 14.2662H10.1453C12.5668 14.2662 14.5304 12.2699 14.5304 9.808V4.45818C14.5304 1.99637 12.5668 0 10.1453 0ZM13.2148 9.808C13.2148 11.5289 11.8379 12.9287 10.1453 12.9287H4.88314C3.19049 12.9287 1.81358 11.5289 1.81358 9.808V4.45818C1.81358 2.73732 3.19049 1.33745 4.88314 1.33745H10.1453C11.8379 1.33745 13.2148 2.73732 13.2148 4.45818V9.808ZM7.5142 3.56655C5.57687 3.56655 4.00613 5.16347 4.00613 7.13309C4.00613 9.10272 5.57687 10.6996 7.5142 10.6996C9.45154 10.6996 11.0223 9.10272 11.0223 7.13309C11.0223 5.16347 9.45154 3.56655 7.5142 3.56655ZM7.5142 9.36218C6.30567 9.36218 5.32166 8.36177 5.32166 7.13309C5.32166 5.90353 6.30567 4.904 7.5142 4.904C8.72274 4.904 9.70675 5.90353 9.70675 7.13309C9.70675 8.36177 8.72274 9.36218 7.5142 9.36218ZM11.7528 3.29904C11.7528 3.56152 11.5436 3.77429 11.2854 3.77429C11.0272 3.77429 10.8179 3.56152 10.8179 3.29904C10.8179 3.03658 11.0272 2.8238 11.2854 2.8238C11.5436 2.8238 11.7528 3.03658 11.7528 3.29904Z" fill="#212121"/>
</g>
<defs>
<clipPath id="clip0">
<rect width="14.2662" height="14.2662" fill="white" transform="translate(0.498047)"/>
</clipPath>
</defs>
</svg>
