<svg width="19" height="13" viewBox="0 0 19 13" fill="none" xmlns="http://www.w3.org/2000/svg">
<g clip-path="url(#clip0)">
<path d="M17.8275 2.23796C17.6194 1.51054 17.0089 0.937125 16.2349 0.741253C14.8208 0.377698 9.16444 0.377698 9.16444 0.377698C9.16444 0.377698 3.50824 0.377698 2.09416 0.727469C1.33501 0.923133 0.70976 1.51065 0.501526 2.23796C0.129395 3.56657 0.129395 6.32194 0.129395 6.32194C0.129395 6.32194 0.129395 9.0912 0.501526 10.4059C0.709982 11.1332 1.32013 11.7067 2.09428 11.9025C3.52313 12.2662 9.16466 12.2662 9.16466 12.2662C9.16466 12.2662 14.8208 12.2662 16.2349 11.9164C17.0091 11.7206 17.6194 11.1472 17.8278 10.4199C18.1998 9.0912 18.1998 6.33594 18.1998 6.33594C18.1998 6.33594 18.2147 3.56657 17.8275 2.23796ZM7.36357 8.86745V3.77644L12.0672 6.32194L7.36357 8.86745Z" fill="#212121"/>
</g>
<defs>
<clipPath id="clip0">
<rect width="18.0705" height="11.8885" fill="white" transform="translate(0.129395 0.377698)"/>
</clipPath>
</defs>
</svg>
